<svg width="13" height="13" viewBox="0 0 13 13" fill="none" xmlns="http://www.w3.org/2000/svg">
<g filter="url(#filter0_i_102_5)">
<path d="M4.13666 10.1276C3.44916 10.1276 2.89291 10.6901 2.89291 11.3776C2.89291 12.0651 3.44916 12.6276 4.13666 12.6276C4.82416 12.6276 5.38666 12.0651 5.38666 11.3776C5.38666 10.6901 4.82416 10.1276 4.13666 10.1276ZM10.3867 10.1276C9.69916 10.1276 9.14291 10.6901 9.14291 11.3776C9.14291 12.0651 9.69916 12.6276 10.3867 12.6276C11.0742 12.6276 11.6367 12.0651 11.6367 11.3776C11.6367 10.6901 11.0742 10.1276 10.3867 10.1276ZM4.82416 7.00264H9.48041C9.94916 7.00264 10.3617 6.74639 10.5742 6.35889L12.5992 2.52139C12.7554 2.22139 12.6492 1.84639 12.3492 1.68389C12.0429 1.51514 11.6617 1.63389 11.4992 1.94014L9.48041 5.75264H5.09291L2.43041 0.12764H1.01166C0.667908 0.12764 0.386658 0.40889 0.386658 0.75264C0.386658 1.09639 0.667908 1.37764 1.01166 1.37764H1.63666L3.88666 6.12139L3.04291 7.64639C2.58666 8.48389 3.18666 9.50264 4.13666 9.50264H11.0117C11.3554 9.50264 11.6367 9.22139 11.6367 8.87764C11.6367 8.53389 11.3554 8.25264 11.0117 8.25264H4.13666L4.82416 7.00264Z" fill="white"/>
</g>
<defs>
<filter id="filter0_i_102_5" x="0.386658" y="0.12764" width="12.2842" height="12.5" filterUnits="userSpaceOnUse" color-interpolation-filters="sRGB">
<feFlood flood-opacity="0" result="BackgroundImageFix"/>
<feBlend mode="normal" in="SourceGraphic" in2="BackgroundImageFix" result="shape"/>
<feColorMatrix in="SourceAlpha" type="matrix" values="0 0 0 0 0 0 0 0 0 0 0 0 0 0 0 0 0 0 127 0" result="hardAlpha"/>
<feOffset dx="0.5" dy="0.5"/>
<feComposite in2="hardAlpha" operator="arithmetic" k2="-1" k3="1"/>
<feColorMatrix type="matrix" values="0 0 0 0 0.12549 0 0 0 0 0.12549 0 0 0 0 0.12549 0 0 0 0.2 0"/>
<feBlend mode="normal" in2="shape" result="effect1_innerShadow_102_5"/>
</filter>
</defs>
</svg>
